<svg viewBox="0 0 160 160" fill="none" xmlns="http://www.w3.org/2000/svg">
  <circle cx="80" cy="80" r="45" stroke="#7A63FF" stroke-width="4" fill="none"/>
  <path d="M 80 20 A 60 60 0 0 1 130 50" stroke="#7A63FF" stroke-width="2.5" fill="none" stroke-linecap="round"/>
  <path d="M 140 80 A 60 60 0 0 1 120 130" stroke="#7A63FF" stroke-width="2.5" fill="none" stroke-linecap="round"/>
  <path d="M 100 145 A 60 60 0 0 1 40 135" stroke="#7A63FF" stroke-width="2.5" fill="none" stroke-linecap="round"/>
  <path d="M 25 110 A 60 60 0 0 1 25 50" stroke="#7A63FF" stroke-width="2.5" fill="none" stroke-linecap="round"/>
  <path d="M 40 30 A 60 60 0 0 1 70 20" stroke="#7A63FF" stroke-width="2.5" fill="none" stroke-linecap="round"/>
  <path d="M 55 45 A 35 35 0 0 0 40 75" stroke="#7A63FF" stroke-width="1.5" fill="none" stroke-linecap="round"/>
  <path d="M 40 105 A 35 35 0 0 0 65 135" stroke="#7A63FF" stroke-width="1.5" fill="none" stroke-linecap="round"/>
  <path d="M 100 130 A 35 35 0 0 0 120 100" stroke="#7A63FF" stroke-width="1.5" fill="none" stroke-linecap="round"/>
  <path d="M 115 65 A 35 35 0 0 0 95 45" stroke="#7A63FF" stroke-width="1.5" fill="none" stroke-linecap="round"/>
</svg>